<svg id="Vetores" xmlns="http://www.w3.org/2000/svg" width="2170.284" height="557.219" viewBox="0 0 2170.284 557.219">
  <defs>
    <style>
      .cls-1 {
        fill: #fff;
        fill-rule: evenodd;
      }
    </style>
  </defs>
  <path id="Ãcone" class="cls-1" d="M145.316,414.632c-7.558-25.981-18.15-87.022,9.644-147.509C252.622,54.582,475.114,147.762,443.428,136.96c100.249,34.175,138.59,111.878,151.27,168.86,10.12,45.475,3.519,81.5,3.519,81.5s-1.134,23.969,25.211,22.866c21.076-.882,22.867-25.211,22.867-25.211s2.655-23.442,0-57.46c-7.957-101.927-77.2-175.275-113.76-200.651C386.141,25.242,164.663,73.652,99.846,276.5c-22.11,69.2-4.039,136.231,1.759,158.306C108.4,460.675,158.3,459.255,145.316,414.632ZM157.3,505.577c-0.228,1.335-.486,2.842-0.77,4.5-5.524,32.3-20.923,122.32-20.923,122.32l133.871-28.842c23.639-5.093,27.571-17.884,27.953-19.236,3.585-12.7-4.636-24.2-10.573-27.341-12.175-6.441-17.085-4.392-23.992-2.938L194.243,568.49s4.994-31.142,7.993-48.9c4.967-29.411-16.183-32.246-17.96-32.6C164.7,483.128,158.245,500.081,157.3,505.577ZM371.9,587.839a113.509,113.509,0,0,0,13.485-.587c13.712-1.384,29.315-3.517,29.315-3.517,9.308-.295,18.543,4.058,21.695,17.589,3.884,16.678-7.038,25.261-17.59,26.384,0,0-21.034,3.6-37.25,4.108-11.46.362-30.728,1-31.349-22.283C349.784,593.8,358.4,588.219,371.9,587.839Zm161.823-69.186c16.974-16.616,31.028-40.041,39.284-52.182-0.161.237,11.04-15.879,31.075-2.345,3.181,2.149,12.876,15.832,2.931,34.593-4.211,7.944-13.01,18.406-21.694,29.315a304.627,304.627,0,0,1-38.535,39.221c-7.9,6.649-13.94,11.639-14.237,11.852a68.938,68.938,0,0,1-16.413,8.732c-10.733,3.8-22.734,3.363-28.144-7.036-5.526-10.623-2.419-20.157,1.759-24.625C499.641,545.6,501.949,549.758,533.721,518.653ZM437.359,216.406a98.078,98.078,0,1,1-98.078,98.078A98.079,98.079,0,0,1,437.359,216.406Zm-0.171,54.313a42.438,42.438,0,1,1-42.407,42.437A42.422,42.422,0,0,1,437.188,270.719ZM239.469,296.75a37.3,37.3,0,1,1-37.281,37.3A37.289,37.289,0,0,1,239.469,296.75Zm59.047,125.344A33.516,33.516,0,1,1,265,455.609,33.515,33.515,0,0,1,298.516,422.094Zm-31.813-203a16.984,16.984,0,1,1-17.015,16.984A17,17,0,0,1,266.7,219.094Zm56.485-32.406A16.687,16.687,0,1,1,306.5,203.375,16.687,16.687,0,0,1,323.188,186.688Zm64.093,302.437a16.657,16.657,0,1,1-16.687,16.656A16.672,16.672,0,0,1,387.281,489.125Zm59.844-19.469a16.657,16.657,0,1,1-16.656,16.656A16.656,16.656,0,0,1,447.125,469.656Z" transform="translate(-89.156 -75.406)"/>
  <path id="Forma_1" data-name="Forma 1" class="cls-1" d="M982.255,252.465C971.1,231.248,918.038,203.8,879.649,203.8c-88.932,0-158.306,71.1-158.306,160.029,0,59.06,31.725,106.28,78.494,132.415,55.472,31,109.663,17.176,133.267,6.029,21.673-10.234,40.5-24.271,44.461-35.8-0.869,2.528-46.32-46.906-46.32-46.906s-18.216,25.452-59.245,23.8c-25.318-1.018-48.445-11.845-67.986-39.047-16.748-23.314-13.439-64.23-2.345-82.084,31.422-50.57,73.521-50.669,101.433-41.629a91.367,91.367,0,0,1,34.007,19.935S983.242,254.34,982.255,252.465Zm134.5,32.379a114.219,114.219,0,1,1-114.22,114.218A114.22,114.22,0,0,1,1116.75,284.844ZM1115.83,345a52.625,52.625,0,1,1-52.64,52.625A52.634,52.634,0,0,1,1115.83,345Zm149.03-41.526-0.59,192.9s4.68,12.752,12.9,12.9c11.64,0.208,28.71.539,39.87-.586,7.66-.772,11.73-11.14,11.73-11.14l-1.17-120.782s5.33-21.51,24.62-20.521c21.11,1.082,24.63,22.28,24.63,22.28V499.305s1.79,10.41,16.41,10.553c7.84,0.077,28.45.53,35.18-1.172,8.67-2.19,8.21-8.795,8.21-8.795l-0.58-121.954s2.13-21.041,24.03-21.108c22.58-.069,24.63,21.694,24.63,21.694s-0.43,89.16-.55,114.642c-0.03,4.737-.84,8.612,4.65,13.762,2.29,2.138,9.97,2.345,9.97,2.345h35.93c-1.35,0,4.49,1.368,8.05-4.1,2.06-3.178,2.34-9.381,2.34-9.381s-0.32-79.855-.49-120.969c-0.08-20.012,2.24-27.841-7.23-47.256a70.691,70.691,0,0,0-39.18-35.814c-48.28-18.409-77.4,18.176-77.4,18.176s-22.13-21.712-40.46-22.28c-33.39-1.037-49.83,19.935-49.83,19.935s-2.3,1.882-3.52-.587c-0.67-1.358.31-3.714-.59-5.863a21.036,21.036,0,0,0-10.55-10.554c-6.12-2.563-28.02-1.731-36.35-1.172C1267.49,290.209,1264.86,303.474,1264.86,303.474Zm323.06,3.518,1.17-1.172s3.26-16.644,30.49-15.831c22.96,0.685,31.08,15.831,31.08,15.831V492.064c0,4.289.31,8.8,0.01,10.1-0.71,3.2-2.9,7.021-8.81,7.105-12.12.174-33.56-.052-44.61,0-7.38.035-8.14-6.427-8.16-10.834C1588.99,457.037,1589.09,305.82,1589.09,305.82Zm30.36-108.164a36.235,36.235,0,1,1-36.26,36.235A36.253,36.253,0,0,1,1619.45,197.656ZM1851.18,311.1c0.09-.006.01-3.786,0-9.38-0.02-6.949,3.88-11.708,9.97-11.727,9.14-.028,23.47.572,31.07,0.586,12.87,0.025,11.14,8.209,11.14,8.209s3.64,133.746,0,228.664c-0.34,8.9.97,38.056-36.94,75.049,7.77-7.579-43.92,49.012-121.36,23.452-11.74-3.874-40.76-21.516-55.12-45.146-19.84-32.652-11.14-51.6-11.14-51.6s5.48-8.473,11.14-8.795c5.91-.335,30.87-0.5,33.42,0,4.35,0.858,7.47,3.672,15.16,21.071,10.91,24.684,57.3,47.691,88.03,15.867,17.46-18.081,15.37-45.058,15.43-45.632a167.753,167.753,0,0,0,.4-27.071s-24.51,16.892-55.7,17c-25.59.091-54.66-10.49-82.67-47.492-4.84-6.4-32.58-56.92-5.39-110.3,10.98-21.538,31.4-46.358,68.13-55.047C1816.38,277.075,1851.18,311.1,1851.18,311.1Zm-56.68,35.748a46.688,46.688,0,1,1-46.69,46.687A46.692,46.692,0,0,1,1794.5,346.844Zm211.47-140.7s-0.46-11.7-9.38-11.727c-11.83-.034-28.96,0-38.11,0-5.01,0-8.08,4.448-9.69,7.866-1.93,4.083-1.45,3.4-1.47,8.435-0.03,6.768-.09,20.63-0.16,38.757-0.15,37.023-.37,91.841-0.57,140.368-0.23,57.366-.43,105.942-0.43,105.942s0.64,12.327,12.32,12.9c5.5,0.27,31.08.7,37.52,0.586,13.44-.229,10.55-13.485,10.55-13.485s-0.06-32.742-.15-76.209c-0.07-32.566-.15-71.153-0.22-106.5C2006.07,255.281,2005.97,206.146,2005.97,206.146Zm244.22,213.382a18.123,18.123,0,0,0,7.78-10.387c-0.79,2.826,4.01-7.565-.46-28.532-5.42-25.439-15.46-44.146-27.47-57.7a109.664,109.664,0,0,0-20.02-17.352,103.79,103.79,0,0,0-61.7-18.313c-27.76.551-53.45,11.389-68.95,25.971-12.91,12.148-22.95,25.637-29.41,40.42a118.082,118.082,0,0,0-.59,93.225c16.19,37.634,51.97,66.615,99.09,67.426,49.21,0.847,85.6-30.488,85.6-30.488l-38.7-42.8s-20.07,16.914-43.38,15.831c-17.79-.826-28.81-7.392-35.51-14.762-7.2-7.922-9.41-16.771-9.64-20.417h133.46C2246.13,421.652,2245.81,422.36,2250.19,419.528Zm-140.43-43.609s9.13-31.874,41.04-31.661c29.23,0.195,43.98,32.834,43.98,32.834Z" transform="translate(-89.156 -75.406)"/>
</svg>
